<svg xmlns="http://www.w3.org/2000/svg" xmlns:xlink="http://www.w3.org/1999/xlink" viewBox="0 0 229.57 209.26"><defs><filter id="luminosity-noclip" x="89.75" y="69.16" width="32.49" height="27.83" filterUnits="userSpaceOnUse" color-interpolation-filters="sRGB"><feFlood flood-color="#fff" result="bg"/><feBlend in="SourceGraphic" in2="bg"/></filter><mask id="mask" x="89.75" y="69.16" width="32.49" height="27.83" maskUnits="userSpaceOnUse"><circle cx="111.29" cy="79.48" r="4.42" style="filter:url(#luminosity-noclip)"/></mask></defs><g id="Layer_2" data-name="Layer 2"><g id="Layer_1-2" data-name="Layer 1"><path d="M41.24,123.51A30.38,30.38,0,0,1,17.5,112.13a56.19,56.19,0,0,0,22.55,71,14.66,14.66,0,0,1-4.52-10.61,15,15,0,0,1,5.67-11.71,13.32,13.32,0,0,1,1.71-1.18h0a39.19,39.19,0,0,0,19.68-21.55,39.13,39.13,0,0,0,1-24.35A30.36,30.36,0,0,1,41.24,123.51Z" style="fill:none;stroke:#0c1640;stroke-linecap:round;stroke-linejoin:round;stroke-width:15.463973999023438px"/><g style="mask:url(#mask)"><path d="M116.33,94.58a13.82,13.82,0,1,0-20.9-.26,35.2,35.2,0,0,1,20.9.26Z" style="fill:#0c1640;stroke:#0c1640;stroke-linecap:round;stroke-linejoin:round;stroke-width:4.832491874694824px"/></g><path d="M60.57,146.26a35.75,35.75,0,0,1-18.16,15A18.69,18.69,0,0,0,76.57,160c-.28,0-.56.05-.84.05A15.24,15.24,0,0,1,60.57,146.26Z" style="fill:none;stroke:#0c1640;stroke-linecap:round;stroke-linejoin:round;stroke-width:15.463973999023438px"/><path d="M211.88,201.53A142.08,142.08,0,0,0,114.24,11.44,89.06,89.06,0,0,0,92.57,7.82c-1.28-.05-2.56-.09-3.84-.09A88.84,88.84,0,0,0,36,25,89.92,89.92,0,0,0,22,37.71a34.66,34.66,0,0,0-10,35.6,30.72,30.72,0,0,0-4,11,32,32,0,0,0-.36,4.73,30.68,30.68,0,0,0,6.81,19.3c.2.25.41.5.62.74" style="fill:none;stroke:#0c1640;stroke-linecap:round;stroke-linejoin:round;stroke-width:15.463973999023438px"/></g></g></svg>