<svg xmlns="http://www.w3.org/2000/svg" xmlns:xlink="http://www.w3.org/1999/xlink" viewBox="0 0 59.72 52.45"><defs><filter id="luminosity-noclip" x="22.46" y="16.78" width="8.15" height="6.95" filterUnits="userSpaceOnUse" color-interpolation-filters="sRGB"><feFlood flood-color="#fff" result="bg"/><feBlend in="SourceGraphic" in2="bg"/></filter><mask id="mask" x="22.46" y="16.78" width="8.15" height="6.95" maskUnits="userSpaceOnUse"><circle cx="27.52" cy="19.52" r="0.83" style="filter:url(#luminosity-noclip)"/></mask></defs><g id="Layer_2" data-name="Layer 2"><g id="Layer_1-2" data-name="Layer 1"><path d="M55.67,50.56A36.35,36.35,0,0,0,29.94,2.89a35.71,35.71,0,0,0-8.26-1,22.68,22.68,0,0,0-12.82,5,23.2,23.2,0,0,0-4.42,4.7c-.2.28-.39.57-.58.87a8.85,8.85,0,0,0-1.22,4.49A9,9,0,0,0,2.89,19a7.88,7.88,0,0,0,.75,8.76c0,.07.11.13.17.2" style="fill:none;stroke:#0c1640;stroke-linecap:round;stroke-linejoin:round;stroke-width:3px"/><path d="M9.78,30.72a7.86,7.86,0,0,1-6.14-2.95A14.56,14.56,0,0,0,9.47,46.15,3.82,3.82,0,0,1,8.3,43.4a3.93,3.93,0,0,1,1.47-3,3.52,3.52,0,0,1,.45-.3h0a10.19,10.19,0,0,0,5.1-5.58,10.21,10.21,0,0,0,.25-6.29A7.87,7.87,0,0,1,9.78,30.72Z" style="fill:none;stroke:#0c1640;stroke-linecap:round;stroke-linejoin:round;stroke-width:3.5px"/><g style="mask:url(#mask)"><path d="M29.21,23.23a3.57,3.57,0,1,0-5.41-.06,8.89,8.89,0,0,1,2.6-.38A9,9,0,0,1,29.21,23.23Z" style="fill:#0c1640;stroke:#0c1640;stroke-linecap:round;stroke-linejoin:round"/></g><path d="M14.88,36.49a10.5,10.5,0,0,1-5.11,4.32,5.1,5.1,0,0,0,8.84-.35A4.45,4.45,0,0,1,14.88,36.49Z" style="fill:none;stroke:#0c1640;stroke-linejoin:round;stroke-width:3.5px"/><path d="M55.67,50.55A36.35,36.35,0,0,0,27,2.3a37.5,37.5,0,0,0-4.89-.4A22.75,22.75,0,0,0,4.79,10.49a8.16,8.16,0,0,0-.67.88A8.85,8.85,0,0,0,3,18.8a7.82,7.82,0,0,0-1,2.82,8.11,8.11,0,0,0-.09,1.21A7.87,7.87,0,0,0,3.8,28" style="fill:none;stroke:#0c1640;stroke-linecap:round;stroke-linejoin:round;stroke-width:3.8px"/></g></g></svg>