<svg xmlns="http://www.w3.org/2000/svg" xmlns:xlink="http://www.w3.org/1999/xlink" viewBox="0 0 59.92 52.66"><defs><filter id="luminosity-noclip" x="22.43" y="16.76" width="8.4" height="7.2" filterUnits="userSpaceOnUse" color-interpolation-filters="sRGB"><feFlood flood-color="#fff" result="bg"/><feBlend in="SourceGraphic" in2="bg"/></filter><mask id="mask" x="22.43" y="16.76" width="8.4" height="7.2" maskUnits="userSpaceOnUse"><circle cx="27.62" cy="19.63" r="0.83" style="filter:url(#luminosity-noclip)"/></mask></defs><g id="Layer_2" data-name="Layer 2"><g id="Layer_1-2" data-name="Layer 1"><path d="M55.77,50.66A36.32,36.32,0,0,0,21.78,2,22.62,22.62,0,0,0,9,7a23.41,23.41,0,0,0-4.42,4.69c-.2.29-.39.57-.58.87A8.88,8.88,0,0,0,2.74,17,9,9,0,0,0,3,19.11a7.89,7.89,0,0,0,.75,8.77l.17.19" style="fill:none;stroke:#0c1640;stroke-linecap:round;stroke-linejoin:round;stroke-width:4px"/><path d="M9.88,30.82a7.89,7.89,0,0,1-6.14-2.94,14.5,14.5,0,0,0,.71,13.17,14.66,14.66,0,0,0,5.12,5.2A3.8,3.8,0,0,1,8.4,43.5a3.9,3.9,0,0,1,1.47-3,2.77,2.77,0,0,1,.45-.31h0A10.13,10.13,0,0,0,15.66,28.3,7.87,7.87,0,0,1,9.88,30.82Z" style="fill:none;stroke:#0c1640;stroke-linecap:round;stroke-linejoin:round;stroke-width:3.5px"/><g style="mask:url(#mask)"><path d="M29.31,23.33a3.57,3.57,0,1,0-5.41-.06,8.89,8.89,0,0,1,2.6-.38A9.33,9.33,0,0,1,29.31,23.33Z" style="fill:#0c1640;stroke:#0c1640;stroke-linecap:round;stroke-linejoin:round;stroke-width:1.25px"/></g><path d="M55.77,50.66A36.36,36.36,0,0,0,27.05,2.4,37.5,37.5,0,0,0,22.16,2,22.84,22.84,0,0,0,4.89,10.59a8.16,8.16,0,0,0-.67.88A8.85,8.85,0,0,0,3.11,18.9a7.89,7.89,0,0,0-1,2.82A8.11,8.11,0,0,0,2,22.93a7.9,7.9,0,0,0,1.9,5.14" style="fill:none;stroke:#0c1640;stroke-linecap:round;stroke-linejoin:round;stroke-width:4px"/><path d="M14.88,36.7a9.19,9.19,0,0,1-4.7,3.89A4.84,4.84,0,0,0,19,40.25H18.8A4,4,0,0,1,14.88,36.7Z" style="fill:none;stroke:#0c1640;stroke-linejoin:round;stroke-width:3.5px"/></g></g></svg>